<svg class="" width="354px" height="120px" x="0px" y="0px" viewBox="0 0 354 120" xmlns="http://www.w3.org/2000/svg" version="1.1" style="transform: translate(0,0)"><rect x="0" y="0" width="354" height="120" style="fill:#00000000;"/><g transform="translate(10, 10)" style="fill:#FFFFFF;"><rect x="0" y="0" width="4" height="100"/><rect x="6" y="0" width="2" height="100"/><rect x="12" y="0" width="2" height="100"/><rect x="22" y="0" width="2" height="100"/><rect x="26" y="0" width="2" height="100"/><rect x="32" y="0" width="8" height="100"/><rect x="44" y="0" width="4" height="100"/><rect x="52" y="0" width="2" height="100"/><rect x="56" y="0" width="2" height="100"/><rect x="66" y="0" width="2" height="100"/><rect x="70" y="0" width="4" height="100"/><rect x="78" y="0" width="2" height="100"/><rect x="88" y="0" width="2" height="100"/><rect x="94" y="0" width="2" height="100"/><rect x="98" y="0" width="4" height="100"/><rect x="110" y="0" width="2" height="100"/><rect x="114" y="0" width="8" height="100"/><rect x="126" y="0" width="2" height="100"/><rect x="132" y="0" width="2" height="100"/><rect x="136" y="0" width="4" height="100"/><rect x="144" y="0" width="2" height="100"/><rect x="154" y="0" width="2" height="100"/><rect x="160" y="0" width="4" height="100"/><rect x="172" y="0" width="2" height="100"/><rect x="176" y="0" width="2" height="100"/><rect x="186" y="0" width="4" height="100"/><rect x="192" y="0" width="2" height="100"/><rect x="198" y="0" width="2" height="100"/><rect x="204" y="0" width="2" height="100"/><rect x="210" y="0" width="8" height="100"/><rect x="220" y="0" width="2" height="100"/><rect x="224" y="0" width="4" height="100"/><rect x="232" y="0" width="2" height="100"/><rect x="242" y="0" width="8" height="100"/><rect x="252" y="0" width="6" height="100"/><rect x="260" y="0" width="2" height="100"/><rect x="264" y="0" width="2" height="100"/><rect x="268" y="0" width="4" height="100"/><rect x="276" y="0" width="2" height="100"/><rect x="286" y="0" width="6" height="100"/><rect x="294" y="0" width="2" height="100"/><rect x="302" y="0" width="4" height="100"/><rect x="308" y="0" width="4" height="100"/><rect x="318" y="0" width="6" height="100"/><rect x="326" y="0" width="2" height="100"/><rect x="330" y="0" width="4" height="100"/></g></svg>