<svg class="" width="354px" height="120px" x="0px" y="0px" viewBox="0 0 354 120" xmlns="http://www.w3.org/2000/svg" version="1.1" style="transform: translate(0,0)"><rect x="0" y="0" width="354" height="120" style="fill:transparent;"/><g transform="translate(10, 10)" style="fill:#000000;"><rect x="0" y="0" width="4" height="100"/><rect x="6" y="0" width="2" height="100"/><rect x="12" y="0" width="2" height="100"/><rect x="22" y="0" width="6" height="100"/><rect x="30" y="0" width="6" height="100"/><rect x="38" y="0" width="4" height="100"/><rect x="44" y="0" width="2" height="100"/><rect x="52" y="0" width="4" height="100"/><rect x="58" y="0" width="6" height="100"/><rect x="66" y="0" width="2" height="100"/><rect x="74" y="0" width="4" height="100"/><rect x="80" y="0" width="2" height="100"/><rect x="88" y="0" width="2" height="100"/><rect x="92" y="0" width="2" height="100"/><rect x="100" y="0" width="4" height="100"/><rect x="110" y="0" width="4" height="100"/><rect x="116" y="0" width="6" height="100"/><rect x="124" y="0" width="2" height="100"/><rect x="132" y="0" width="2" height="100"/><rect x="140" y="0" width="4" height="100"/><rect x="146" y="0" width="2" height="100"/><rect x="154" y="0" width="4" height="100"/><rect x="164" y="0" width="2" height="100"/><rect x="168" y="0" width="2" height="100"/><rect x="176" y="0" width="4" height="100"/><rect x="186" y="0" width="2" height="100"/><rect x="194" y="0" width="2" height="100"/><rect x="198" y="0" width="4" height="100"/><rect x="208" y="0" width="2" height="100"/><rect x="212" y="0" width="6" height="100"/><rect x="220" y="0" width="2" height="100"/><rect x="228" y="0" width="4" height="100"/><rect x="234" y="0" width="2" height="100"/><rect x="242" y="0" width="2" height="100"/><rect x="246" y="0" width="6" height="100"/><rect x="254" y="0" width="4" height="100"/><rect x="264" y="0" width="2" height="100"/><rect x="272" y="0" width="4" height="100"/><rect x="278" y="0" width="2" height="100"/><rect x="286" y="0" width="4" height="100"/><rect x="292" y="0" width="4" height="100"/><rect x="302" y="0" width="4" height="100"/><rect x="308" y="0" width="4" height="100"/><rect x="318" y="0" width="6" height="100"/><rect x="326" y="0" width="2" height="100"/><rect x="330" y="0" width="4" height="100"/></g></svg>