<?xml version="1.0" encoding="UTF-8"?><svg id="Layer_1" xmlns="http://www.w3.org/2000/svg" viewBox="0 0 48.47 47.27"><path d="M24.23,0C10.84,0,0,10.85,0,24.23c0,10.71,6.94,19.79,16.57,22.99,1.21.23,1.66-.52,1.66-1.17,0-.58-.02-2.1-.03-4.12-6.74,1.46-8.16-3.25-8.16-3.25-1.1-2.8-2.7-3.54-2.7-3.54-2.2-1.5.17-1.47.17-1.47,2.43.17,3.71,2.5,3.71,2.5,2.16,3.71,5.67,2.64,7.06,2.02.22-1.57.84-2.64,1.53-3.24-5.38-.61-11.04-2.69-11.04-11.98,0-2.65.94-4.81,2.49-6.5-.27-.61-1.09-3.08.21-6.41,0,0,2.03-.65,6.66,2.48,1.94-.54,4-.81,6.06-.82,2.06.01,4.12.28,6.06.82,4.6-3.13,6.63-2.48,6.63-2.48,1.3,3.34.48,5.8.24,6.41,1.54,1.7,2.48,3.86,2.48,6.5,0,9.31-5.66,11.36-11.06,11.96.85.73,1.64,2.21,1.64,4.48,0,3.24-.03,5.85-.03,6.64,0,.64.42,1.39,1.67,1.15,9.7-3.18,16.63-12.27,16.63-22.96C48.47,10.85,37.62,0,24.23,0Z" fill="#383838"/></svg>