<svg width="50" height="49" viewBox="0 0 50 49" fill="none" xmlns="http://www.w3.org/2000/svg">
<g clip-path="url(#clip0_4184_80)">
<path d="M25.1513 1.10291C11.7625 1.10291 0.918091 11.9533 0.918091 25.3361C0.918091 36.0452 7.8609 45.1266 17.4875 48.3274C18.6992 48.5556 19.1435 47.8064 19.1435 47.1622C19.1435 46.5866 19.1233 45.0619 19.1132 43.0425C12.3723 44.5046 10.9506 39.7912 10.9506 39.7912C9.84803 36.9943 8.25469 36.2471 8.25469 36.2471C6.05957 34.7447 8.42433 34.7749 8.42433 34.7749C10.8577 34.9446 12.136 37.271 12.136 37.271C14.2968 40.9766 17.8086 39.9063 19.194 39.2864C19.4121 37.7193 20.0361 36.651 20.7287 36.0452C15.3469 35.4393 9.69051 33.3553 9.69051 24.0699C9.69051 21.4245 10.6295 19.2637 12.1845 17.5674C11.9119 16.9555 11.094 14.4918 12.3966 11.1536C12.3966 11.1536 14.4261 10.5034 19.0607 13.6375C20.9993 13.0983 23.0592 12.8318 25.119 12.8197C27.1788 12.8318 29.2386 13.0983 31.1773 13.6375C35.7816 10.5034 37.8111 11.1536 37.8111 11.1536C39.1137 14.4918 38.2958 16.9555 38.0535 17.5674C39.5983 19.2637 40.5374 21.4245 40.5374 24.0699C40.5374 33.3795 34.8729 35.4292 29.481 36.025C30.3291 36.752 31.1167 38.2383 31.1167 40.5081C31.1167 43.7513 31.0864 46.3564 31.0864 47.144C31.0864 47.7801 31.5105 48.5374 32.7524 48.2951C42.4478 45.1165 49.3845 36.029 49.3845 25.3361C49.3845 11.9533 38.5341 1.10291 25.1513 1.10291Z" fill="#383838"/>
</g>
<defs>
<clipPath id="clip0_4184_80">
<rect width="48.4664" height="48.4664" fill="white" transform="translate(0.918091 0.503296)"/>
</clipPath>
</defs>
</svg>
