<?xml version="1.0" encoding="UTF-8"?>
<svg id="Layer_1" xmlns="http://www.w3.org/2000/svg" version="1.1" viewBox="0 0 48.5 47.3">
  <!-- Generator: Adobe Illustrator 29.8.1, SVG Export Plug-In . SVG Version: 2.1.1 Build 2)  -->
  <defs>
    <style>
      .st0 {
        fill: #383838;
      }
    </style>
  </defs>
  <path class="st0" d="M24.2,0C10.8,0,0,10.9,0,24.2s6.9,19.8,16.6,23c1.2.2,1.7-.5,1.7-1.2s0-2.1,0-4.1c-6.7,1.5-8.2-3.3-8.2-3.3-1.1-2.8-2.7-3.5-2.7-3.5-2.2-1.5.2-1.5.2-1.5,2.4.2,3.7,2.5,3.7,2.5,2.2,3.7,5.7,2.6,7.1,2,.2-1.6.8-2.6,1.5-3.2-5.4-.6-11-2.7-11-12s.9-4.8,2.5-6.5c-.3-.6-1.1-3.1.2-6.4,0,0,2-.7,6.7,2.5,1.9-.5,4-.8,6.1-.8,2.1,0,4.1.3,6.1.8,4.6-3.1,6.6-2.5,6.6-2.5,1.3,3.3.5,5.8.2,6.4,1.5,1.7,2.5,3.9,2.5,6.5,0,9.3-5.7,11.4-11.1,12,.8.7,1.6,2.2,1.6,4.5,0,3.2,0,5.8,0,6.6s.4,1.4,1.7,1.2c9.7-3.2,16.6-12.3,16.6-23S37.6,0,24.2,0Z"/>
</svg>