<svg width="99" height="99" viewBox="0 0 99 99" fill="none" xmlns="http://www.w3.org/2000/svg">
<path d="M49.5 1.22482C22.1512 1.22482 0 23.3884 0 50.7248C0 72.5997 14.1817 91.1498 33.8456 97.6879C36.3206 98.1541 37.2281 96.6237 37.2281 95.3078C37.2281 94.1322 37.1869 91.0178 37.1663 86.8928C23.397 89.8793 20.493 80.2516 20.493 80.2516C18.2407 74.5384 14.9861 73.0122 14.9861 73.0122C10.5022 69.9432 15.3326 70.0051 15.3326 70.0051C20.3032 70.3516 22.9144 75.1036 22.9144 75.1036C27.3281 82.673 34.5015 80.4867 37.3312 79.2203C37.7768 76.0193 39.0514 73.8372 40.4663 72.5997C29.4731 71.3622 17.919 67.1052 17.919 48.1384C17.919 42.7347 19.8371 38.3209 23.0134 34.8559C22.4565 33.6061 20.7859 28.5736 23.4465 21.7549C23.4465 21.7549 27.5921 20.4267 37.059 26.8287C41.019 25.7273 45.2265 25.1828 49.434 25.1581C53.6415 25.1828 57.849 25.7273 61.809 26.8287C71.214 20.4267 75.3596 21.7549 75.3596 21.7549C78.0202 28.5736 76.3496 33.6061 75.8546 34.8559C79.0102 38.3209 80.9284 42.7347 80.9284 48.1384C80.9284 67.1547 69.3577 71.3416 58.344 72.5584C60.0765 74.0434 61.6853 77.0794 61.6853 81.7159C61.6853 88.3407 61.6234 93.6619 61.6234 95.2707C61.6234 96.5701 62.4896 98.1169 65.0265 97.6219C84.8306 91.1292 99 72.5667 99 50.7248C99 23.3884 76.8364 1.22482 49.5 1.22482Z" fill="#FF7D7D"/>
</svg>
