<svg width="48" height="48" viewBox="0 0 48 48" fill="none" xmlns="http://www.w3.org/2000/svg">
<g clip-path="url(#clip0_4184_78)">
<path d="M43.2116 0.453491H5.07028C2.74395 0.453491 0.858032 2.3394 0.858032 4.66574V42.8069C0.858032 45.1333 2.74395 47.0193 5.07028 47.0193H43.2114C45.5379 47.0193 47.4238 45.1333 47.4238 42.8069V4.66574C47.4238 2.3394 45.5379 0.453491 43.2116 0.453491ZM15.2675 40.6614C15.2675 41.3385 14.7187 41.8873 14.0416 41.8873H8.82358C8.14655 41.8873 7.59776 41.3385 7.59776 40.6614V18.7876C7.59776 18.1106 8.14655 17.5618 8.82358 17.5618H14.0416C14.7187 17.5618 15.2675 18.1106 15.2675 18.7876V40.6614ZM11.4326 15.4998C8.69486 15.4998 6.47542 13.2804 6.47542 10.5427C6.47542 7.80491 8.69486 5.58548 11.4326 5.58548C14.1704 5.58548 16.3898 7.80491 16.3898 10.5427C16.3898 13.2804 14.1705 15.4998 11.4326 15.4998ZM42.5368 40.7602C42.5368 41.3826 42.0322 41.8873 41.4097 41.8873H35.8104C35.188 41.8873 34.6833 41.3826 34.6833 40.7602V30.5001C34.6833 28.9695 35.1323 23.7931 30.6834 23.7931C27.2325 23.7931 26.5326 27.3362 26.392 28.9263V40.7602C26.392 41.3826 25.8875 41.8873 25.265 41.8873H19.8494C19.227 41.8873 18.7223 41.3826 18.7223 40.7602V18.6889C18.7223 18.0664 19.227 17.5618 19.8494 17.5618H25.265C25.8874 17.5618 26.392 18.0664 26.392 18.6889V20.5972C27.6716 18.6769 29.5733 17.1947 33.6222 17.1947C42.5882 17.1947 42.5368 25.5712 42.5368 30.1737V40.7602Z" fill="#383838"/>
</g>
<defs>
<clipPath id="clip0_4184_78">
<rect width="46.5658" height="46.5658" fill="white" transform="translate(0.858032 0.453491)"/>
</clipPath>
</defs>
</svg>
