<?xml version="1.0" encoding="UTF-8"?><svg id="Layer_1" xmlns="http://www.w3.org/2000/svg" viewBox="0 0 46.57 46.57"><path d="M42.35,0H4.21C1.89,0,0,1.89,0,4.21v38.14c0,2.33,1.89,4.21,4.21,4.21h38.14c2.33,0,4.21-1.89,4.21-4.21V4.21c0-2.33-1.89-4.21-4.21-4.21ZM14.41,40.21c0,.68-.55,1.23-1.23,1.23h-5.22c-.68,0-1.23-.55-1.23-1.23v-21.87c0-.68.55-1.23,1.23-1.23h5.22c.68,0,1.23.55,1.23,1.23v21.87ZM10.57,15.05c-2.74,0-4.96-2.22-4.96-4.96s2.22-4.96,4.96-4.96,4.96,2.22,4.96,4.96-2.22,4.96-4.96,4.96ZM41.68,40.31c0,.62-.5,1.13-1.13,1.13h-5.6c-.62,0-1.13-.5-1.13-1.13v-10.26c0-1.53.45-6.71-4-6.71-3.45,0-4.15,3.54-4.29,5.13v11.83c0,.62-.5,1.13-1.13,1.13h-5.42c-.62,0-1.13-.5-1.13-1.13v-22.07c0-.62.5-1.13,1.13-1.13h5.42c.62,0,1.13.5,1.13,1.13v1.91c1.28-1.92,3.18-3.4,7.23-3.4,8.97,0,8.91,8.38,8.91,12.98v10.59Z" fill="#383838"/></svg>