<svg width="101" height="32" viewBox="0 0 101 32" fill="none" xmlns="http://www.w3.org/2000/svg">
<g opacity="0.9">
<path d="M45.7213 13.232C42.2988 13.232 40.1926 15.656 40.1926 19.024C40.1926 22.712 42.6738 24.832 46.184 24.832C47.8514 24.832 49.447 24.512 50.4522 23.952C50.6197 23.856 50.6915 23.664 50.6038 23.472L49.8299 21.784C49.7422 21.6 49.5108 21.536 49.3193 21.632C48.2264 22.168 47.4525 22.344 46.6388 22.344C44.6443 22.344 43.5433 21.312 43.3838 19.936H50.7394C50.9069 19.936 51.0266 19.816 51.0426 19.648C51.0585 19.456 51.0745 19.224 51.0745 19.056C51.0745 15.448 49.0321 13.232 45.7213 13.232ZM43.3599 18.04C43.4636 16.6 44.3252 15.704 45.7612 15.704C47.1972 15.704 47.9711 16.64 48.0907 18.04H43.3599ZM55.215 16.768C55.215 16.176 55.8532 15.72 57.3052 15.72C58.2306 15.72 59.1082 15.92 60.1054 16.408C60.2889 16.496 60.5043 16.424 60.5921 16.24L61.3659 14.568C61.4457 14.4 61.3659 14.176 61.1984 14.096C60.1373 13.576 58.7013 13.248 57.2972 13.248C54.0263 13.248 52.1036 14.752 52.1036 16.888C52.1036 21.376 58.8848 19.496 58.8848 21.344C58.8848 21.968 58.3264 22.376 56.8265 22.376C55.5979 22.376 54.5448 22.208 53.5556 21.664C53.3721 21.56 53.1328 21.632 53.045 21.816L52.2711 23.512C52.1993 23.68 52.2552 23.904 52.4068 23.984C53.4997 24.592 54.9517 24.848 56.6909 24.848C60.0496 24.848 61.9882 23.376 61.9882 21.272C61.9962 16.84 55.215 18.696 55.215 16.768ZM34.6081 13.232C33.1721 13.232 32.3823 13.504 31.5366 14.328V10.152C31.5366 9.92801 31.3691 9.76001 31.1457 9.76001H28.6646C28.4412 9.76001 28.2737 9.92801 28.2737 10.152V24.272C28.2737 24.488 28.4412 24.656 28.6646 24.656H31.1457C31.3691 24.656 31.5366 24.488 31.5366 24.272V19.088C31.5366 17.024 32.2626 16.056 33.7625 16.056C35.023 16.056 35.5495 16.888 35.5495 18.72V24.272C35.5495 24.488 35.717 24.656 35.9404 24.656H38.4215C38.6449 24.656 38.8125 24.488 38.8125 24.272V18.208C38.8125 14.792 37.2727 13.232 34.6081 13.232ZM26.3909 10.472C25.3538 9.99201 24.1491 9.74401 22.8487 9.76001C18.3093 9.74401 14.9187 12.912 14.9187 17.312C14.9187 21.712 18.2933 24.88 22.8168 24.88C24.1332 24.88 25.3538 24.624 26.3749 24.152C26.5425 24.072 26.6621 23.896 26.6621 23.712V21.256C26.6621 20.904 26.2553 20.704 25.976 20.944C25.1144 21.664 24.1332 22.024 23.0003 22.024C20.2639 22.024 18.3253 20.096 18.3253 17.336C18.3253 14.576 20.2639 12.648 23.0003 12.648C24.1332 12.648 25.1304 13 25.984 13.696C26.2553 13.912 26.6781 13.728 26.6781 13.376V10.936C26.6781 10.728 26.5584 10.552 26.3909 10.472ZM84.2944 17.368C82.252 17.368 80.7362 18.928 80.7362 21.096C80.7362 23.28 82.252 24.84 84.2944 24.84C86.3367 24.84 87.8365 23.288 87.8365 21.096C87.8365 18.904 86.3367 17.368 84.2944 17.368ZM84.2944 23.664C82.978 23.664 81.9808 22.648 81.9808 21.088C81.9808 19.528 82.978 18.528 84.2944 18.528C85.6107 18.528 86.592 19.528 86.592 21.088C86.592 22.648 85.6107 23.664 84.2944 23.664ZM95.8304 17.4C94.2268 17.416 93.6764 18.448 93.6764 18.448C93.2216 17.736 92.5834 17.4 91.7377 17.4C90.6368 17.4 90.1581 17.96 90.0544 18.112V17.728C90.0544 17.576 89.9507 17.456 89.7991 17.456H89.0572C88.9215 17.456 88.8019 17.576 88.8019 17.728V24.504C88.8019 24.656 88.9056 24.776 89.0572 24.776H89.847C89.9826 24.776 90.1023 24.656 90.1023 24.504V20.608C90.1023 19.288 90.573 18.576 91.5622 18.576C92.4956 18.576 92.9344 19.2 92.9344 20.32V24.504C92.9344 24.656 93.0381 24.776 93.1897 24.776H93.9795C94.1151 24.776 94.2348 24.656 94.2348 24.504V20.608C94.2348 19.288 94.6816 18.576 95.6309 18.576C96.6122 18.576 97.0749 19.2 97.0749 20.32V24.504C97.0749 24.656 97.1786 24.776 97.3302 24.776H98.128C98.2636 24.776 98.3833 24.656 98.3833 24.504V20.16C98.3673 18.328 97.4419 17.384 95.8304 17.4ZM79.8906 23C79.4279 23.456 78.8295 23.664 78.1913 23.664C76.7553 23.664 75.8777 22.664 75.8777 21.088C75.8777 19.512 76.7553 18.528 78.1913 18.528C78.8295 18.528 79.4279 18.744 79.8746 19.208C79.9783 19.312 80.1618 19.24 80.1618 19.088V18.056C80.1618 17.952 80.098 17.856 80.0102 17.8C79.4917 17.512 78.8854 17.376 78.2072 17.376C75.9575 17.376 74.5454 18.92 74.5454 21.104C74.5454 23.288 75.9575 24.848 78.2072 24.848C78.8854 24.848 79.5076 24.696 80.0262 24.408C80.114 24.36 80.1778 24.256 80.1778 24.152V23.12C80.1778 22.968 79.9943 22.888 79.8906 23ZM65.6022 16.768C65.6022 16.176 66.2404 15.72 67.6924 15.72C68.6178 15.72 69.4954 15.92 70.4926 16.408C70.6761 16.496 70.8915 16.424 70.9793 16.24L71.7531 14.568C71.8329 14.4 71.7531 14.176 71.5856 14.096C70.5245 13.576 69.0885 13.248 67.6844 13.248C64.4135 13.248 62.4908 14.752 62.4908 16.888C62.4908 21.376 69.272 19.496 69.272 21.344C69.272 21.968 68.7136 22.376 67.2137 22.376C65.9851 22.376 64.932 22.208 63.9428 21.664C63.7593 21.56 63.52 21.632 63.4322 21.816L62.6584 23.512C62.5866 23.68 62.6424 23.904 62.794 23.984C63.8869 24.592 65.3389 24.848 67.0781 24.848C70.4368 24.848 72.3754 23.376 72.3754 21.272C72.3834 16.84 65.6022 18.696 65.6022 16.768ZM73.4285 23.056C72.9578 23.056 72.5509 23.424 72.5509 23.936C72.5509 24.456 72.9738 24.816 73.4285 24.816C73.8832 24.816 74.2742 24.464 74.2742 23.936C74.2742 23.408 73.8992 23.056 73.4285 23.056Z" fill="white"/>
<path d="M13.4427 17.368C13.4427 15.144 14.1129 13.136 15.5569 11.456L14.057 10.464C15.1261 9.68797 15.8201 8.42397 15.8201 6.99997C15.8201 4.63197 13.9134 2.71997 11.5679 2.71997C9.22243 2.71997 7.31572 4.63197 7.31572 6.99997C7.31572 8.42397 8.0098 9.68797 9.07883 10.464L6.00735 12.496C6.00735 13.176 6.1669 13.72 6.48602 14.312H9.1985C9.19052 14.576 9.19052 14.912 9.19052 15.312C9.1267 16.816 8.68792 19.208 5.1936 21.888C3.51825 23.16 2.72046 25.368 2.72046 27.56C2.72046 27.672 2.95182 29.28 11.5759 29.28C20.2 29.28 20.4314 27.664 20.4314 27.56C20.4314 27.096 20.3915 26.632 20.3197 26.176C16.3148 25.144 13.4427 21.552 13.4427 17.368Z" fill="white"/>
</g>
</svg>
