<?xml version="1.0" encoding="UTF-8"?>
<svg id="noround_v2" data-name="noround v2" xmlns="http://www.w3.org/2000/svg" viewBox="0 0 391 391">
  <path d="M354.47,299.65c-15.62,32.02-36.32,61.27-61.11,86.76-.85.87-2.14,1.15-3.27.7-77.32-30.76-131.75-104.35-131.75-190.24,0-91.15,61.33-168.46,146.25-195.41-56.78,23.59-96.54,78.17-96.54,141.74,0,80.39,63.6,146.42,144.77,153.57,1.4.12,2.26,1.6,1.65,2.87h0Z"/>
  <path d="M349.86,182.9c0,28.81-23.86,47.34-47.33,47.34-26.15,0-47.34-21.19-47.34-47.34s21.19-47.34,47.34-47.34,47.33,21.2,47.33,47.34Z"/>
  <path d="M156.16,324.07c-53.73,13.43-88.46,50.7-97.25,60.88-1.18,1.36-3.29,1.38-4.49.04-14.28-16.02-26.63-33.22-37.07-51.28-.71-1.23-.46-2.8.61-3.74,10.24-9.11,61.54-55.82,102.35-112.32.54-.75,1.71-.43,1.8.5,3.37,38.05,15.62,73.56,34.67,104.42.36.58.05,1.33-.61,1.5h-.01Z"/>
</svg>